<svg xmlns="http://www.w3.org/2000/svg" viewBox="0 0 841.89 595.28">
    <g id="RICALCO">
        <path fill="#7a7e86" d="M67.56,325.5s-12.33-34.43,11-62.49c0,0,8.08-44.41,44.66-44.4,17,0,55.8,19.62,55.84,75.86s-14.73,105.07-79.33,82.41C68.39,365.87,67.56,325.5,67.56,325.5Z"></path>
        <path fill="#7a7e86" d="M145.56,254.53c-15.5,1.07-16.19-9.66-16.19-9.66s-2.6-4.77-1.85-12.79c0,0,1.65-4,15.59-11.13,7.5-3.85,8.9-16.7,8.9-16.7s14.47,10.39,4.45,36.74-31,10.14-30.79,3.71"></path>
        <path fill="#7a7e86" d="M129.37,267.45c.37-2.17,2-9.44,13.46-12.1s30.84-5.26,37.83-69.52c0,0,17.62,8.73,9.59,59s-37.83,45.89-37.83,45.89S125.66,289.06,129.37,267.45Z"></path>
        <path fill="#7a7e86" d="M169.59,285.86s-23.3,20.5-40.22,2.66"></path>
        <path fill="#1d3545" d="M343.37,278.54s8,42.37,4,87.38c0,0,24.95-71.06-2.58-112.51-16.16-24.33-32.06-40.93-75.3-32.24-23,4.63-71.16,27.81-48.61,91.93s36.51,69.63,36.51,69.63-11.69-50.44-7.38-71.55c5.38-26.43,61,51.79,61,51.79S332.83,333,343.37,278.54Z"></path>
        <path fill="#e6ae40" d="M479.35,298.12c-15.78.81-37.58,79.52-37.58,79.52l-6-16.44c-5.45,21.14-4.36,51.84-4.36,51.84l-9.26-21.78-15.79,53.37,3.27-83.43,3.54,9.36V324.74L417.81,346,420,312.28l-15.25-39.21v19.61C401.47,280.15,383,243.11,383,243.11l2.72,24c-2.72-13.62-53.92-89.33-53.92-89.33s46.84,31.05,55,43l-4.9-19.61s29.42,31.59,31.32,40.31L408,221.33s24,22.33,24,27.23,12.52-49,12.52-49l4.36,36s5.45-70.81,10.35-78.43l6,27.23s17.43-68.08,25.6-76.25c0,0,7.08,70.8,14.7,87.69L488.61,173.4s15.25,51.19,22.88,56.64l-15.8-12.53,15.8,34,32.13-29-7.63,18,49-40.31L571.4,218.6s59.91-41.39,68.08-41.39l-47.93,69.71-3.81-14.16-34.32,72.09V282.38l-14.7,22.47.54,43.92,5.45-13,.54,52.78,6-12.52v68.62l-21.78-53.37-2.18,18.85s-7.08-37.37-9.8-47.45l-4.91,12.8S500.59,297,479.35,298.12Z"></path>
        <path fill="#6ba943" d="M637.88,370.13s-.59,7.65-9.42,3.53,0-19.41,0-19.41-1.37-20-3.92-30.59,6.67-21.33,6.67-21.33-.39-80.45,18.43-84c0,0-6.47,45.88,8.24,67.06L642,302.33S629.05,341.89,637.88,370.13Z"></path>
        <path fill="#ca4856" d="M642,302.33s14.12-44,60.6-46.33,74.91,34.74,85.88,58.24c5.41,11.57,14.95,48.83,14.95,48.83h0s-35.54,5.29-60.83-5.29c0,0-5.88-58.92-48.24-66.48S642,302.33,642,302.33Z"></path>
        <path fill="#6ba943" d="M719.65,378.37s10.41,10,20-4.12c0,0,4.7-18.83,10.59-34.71s18.23-35.3,18.23-61.18c0,0-2.35-18.24-10.59-32.94s-5.29-27.06-5.29-27.06-12.35,12.35-17.06,53.53-10.15,39.59-10.15,39.59S728.47,358.36,719.65,378.37Z"></path>
    </g>
</svg>